<svg width="65" height="75" viewBox="0 0 65 75" fill="none" xmlns="http://www.w3.org/2000/svg">
<path d="M62.5141 50C63.9265 50 65 48.8706 65 47.4871V28.5412C65 27.1577 63.9265 26 62.5141 26C61.0735 26 60 27.1577 60 28.5412V47.4871C60 48.8706 61.0735 50 62.5141 50Z" fill="#219653"/>
<path d="M50.4859 67C51.8983 67 53 65.8577 53 64.4584V10.5702C53 9.17089 51.8983 8 50.4859 8C49.0453 8 48 9.17089 48 10.5702V64.4584C48 65.8577 49.0453 67 50.4859 67Z" fill="#219653"/>
<path d="M38.4859 56C39.9265 56 41 54.9216 41 53.5665V21.4611C41 20.1061 39.9265 19 38.4859 19C37.0452 19 36 20.1061 36 21.4611V53.5665C36 54.9216 37.0452 56 38.4859 56Z" fill="#219653"/>
<path d="M26.4859 75C27.9266 75 29 73.9037 29 72.5268V2.47283C29 1.09592 27.9266 0 26.4859 0C25.0735 0 24 1.09592 24 2.47283V72.5268C24 73.9037 25.0735 75 26.4859 75Z" fill="#219653"/>
<path d="M14.4577 61C15.8983 61 17 59.8994 17 58.5166V17.5117C17 16.1288 15.8983 15 14.4577 15C13.0452 15 12 16.1288 12 17.5117V58.5166C12 59.8994 13.0452 61 14.4577 61Z" fill="#219653"/>
<path d="M2.48588 46C3.92656 46 5 44.9202 5 43.5358V31.4918C5 30.1075 3.92656 29 2.48588 29C1.0452 29 0 30.1075 0 31.4918V43.5358C0 44.9202 1.0452 46 2.48588 46Z" fill="#219653"/>
</svg>
