<svg width="86" height="109" viewBox="0 0 86 109" fill="none" xmlns="http://www.w3.org/2000/svg">
<g clip-path="url(#clip0_207_50)">
<path d="M0 92.7039C0 103.162 5.37655 108.609 15.7633 108.609H69.6226C80.0093 108.609 85.3859 103.162 85.3859 92.7039V15.9445C85.3859 5.48671 80.0093 0.0390625 69.6226 0.0390625H15.7633C5.37655 0.0390625 0 5.48671 0 15.9445V92.7039ZM8.58743 92.182V16.4664C8.58743 11.3703 11.2249 8.62649 16.4914 8.62649H68.8945C74.1609 8.62649 76.8055 11.3703 76.8055 16.4664V92.182C76.8055 97.2781 74.1609 100.022 68.8945 100.022H16.4914C11.2249 100.022 8.58743 97.2781 8.58743 92.182Z" fill="#27AE60"/>
<path d="M23.5796 69.4664H61.9344C63.5812 69.4664 64.8234 68.1852 64.8234 66.5633C64.8234 64.9555 63.5812 63.7203 61.9344 63.7203H23.5796C21.8796 63.7203 20.6445 64.9555 20.6445 66.5633C20.6445 68.1852 21.8796 69.4664 23.5796 69.4664ZM23.5796 84.5258H42.1593C43.8132 84.5258 45.0554 83.2906 45.0554 81.7078C45.0554 80.093 43.8132 78.8117 42.1593 78.8117H23.5796C21.8796 78.8117 20.6445 80.093 20.6445 81.7078C20.6445 83.2906 21.8796 84.5258 23.5796 84.5258Z" fill="#27AE60"/>
<path d="M41.5908 44.8883C43.5392 44.8883 44.8166 43.7164 44.8798 42.1719C44.8869 41.9266 44.8939 41.7133 44.8939 41.475C44.9712 39.3601 46.2173 38.0492 48.9541 36.2008C52.9822 33.5648 55.4306 31.1132 55.4306 26.6086C55.4306 20.2117 49.6877 16.3906 42.7486 16.3906C36.6783 16.3906 31.3111 19.4609 30.2111 23.9195C30.0658 24.4945 30.0127 25.0234 30.0127 25.6695C30.0127 27.4445 31.397 28.5156 32.8548 28.5156C34.2252 28.5156 35.1228 27.9187 35.783 26.907L36.2947 26.132C37.3103 23.6757 39.447 22.0499 42.3486 22.0499C46.0322 22.0499 48.2932 24.0335 48.2932 26.9312C48.2932 29.4367 46.7338 30.7304 43.2338 33.1859C40.2244 35.2679 38.2635 37.414 38.2635 41.1102C38.2635 41.3414 38.2635 41.5406 38.2635 41.7969C38.2635 43.8305 39.4697 44.8883 41.5908 44.8883ZM41.5658 56.7398C43.9049 56.7398 45.9322 54.925 45.9322 52.568C45.9322 50.1469 43.9689 48.332 41.5658 48.332C39.0775 48.332 37.1072 50.1789 37.1072 52.568C37.1072 54.8859 39.1095 56.7398 41.5658 56.7398Z" fill="#27AE60"/>
</g>
<defs>
<clipPath id="clip0_207_50">
<rect width="85.3859" height="108.609" fill="white"/>
</clipPath>
</defs>
</svg>
