<svg width="119" height="87" viewBox="0 0 119 87" fill="none" xmlns="http://www.w3.org/2000/svg">
<g clip-path="url(#clip0_207_42)">
<path d="M23.1124 68.0086H35.4562C38.4249 68.0086 40.4171 66.0164 40.4171 63.1969V53.8289C40.4171 51.0164 38.4249 49.0242 35.4562 49.0242H23.1124C20.1437 49.0242 18.1515 51.0164 18.1515 53.8289V63.1969C18.1515 66.0164 20.1437 68.0086 23.1124 68.0086ZM4.95776 31.7031H113.592V20.0797H4.95776V31.7031ZM15.9054 86.1921H102.516C113.006 86.1921 118.454 80.7515 118.454 70.3969V15.9054C118.454 5.54374 113.006 0.110153 102.516 0.110153H15.9054C5.44764 0.110153 0 5.51171 0 15.9054V70.3969C0 80.7836 5.44764 86.1921 15.9054 86.1921ZM16.4203 77.5727C11.3312 77.5727 8.58743 74.9352 8.58743 69.6937V16.6015C8.58743 11.3351 11.3312 8.69056 16.4203 8.69056H102.027C107.027 8.69056 109.834 11.3351 109.834 16.6015V69.6937C109.834 74.9352 107.027 77.5727 102.027 77.5727H16.4203Z" fill="#27AE60"/>
</g>
<defs>
<clipPath id="clip0_207_42">
<rect width="118.454" height="86.1921" fill="white"/>
</clipPath>
</defs>
</svg>
