<svg width="42" height="42" viewBox="0 0 42 42" fill="none" xmlns="http://www.w3.org/2000/svg">
<path d="M32.4391 9.57694V12.4307H35.309V9.57694H32.4391ZM29.5854 12.4307V15.3005H32.4391V12.4307H29.5854ZM26.7155 15.3005V18.1543H29.5854V15.3005H26.7155ZM23.8618 18.1543V21.0241H26.7155V18.1543H23.8618ZM21.008 21.0241V23.894H23.8618V21.0241H21.008ZM18.1382 23.894V26.7477H21.008V23.894H18.1382ZM15.2683 26.7477V29.6015H18.1382V26.7477H15.2683ZM12.4146 29.6015V32.4714H15.2683V29.6015H12.4146ZM9.5447 32.4714V35.3412H12.4146V32.4714H9.5447ZM12.4146 37.7919L12.9144 38.195H15.2683V35.3412H12.4146V37.7919ZM15.2683 32.4714V35.3412H18.1382V32.4714H15.2683ZM18.1382 29.6015V32.4714H21.008V29.6015H18.1382ZM21.008 26.7477V29.6015H23.8618V26.7477H21.008ZM23.8618 23.894V26.7477H26.7155V23.894H23.8618ZM26.7155 21.0241V23.894H29.5854V21.0241H26.7155ZM29.5854 18.1543V21.0241H32.4391V18.1543H29.5854ZM32.4391 15.3005V18.1543H35.309V15.3005H32.4391ZM38.1627 15.1877V18.1543H40.2909V15.1877H38.1627ZM35.309 18.1543V21.0241H38.1627V18.1543H35.309ZM32.4391 21.0241V23.894H35.309V21.0241H32.4391ZM29.5854 23.894V26.7477H32.4391V23.894H29.5854ZM26.7155 26.7477V29.6015H29.5854V26.7477H26.7155ZM23.8618 29.6015V32.4714H26.7155V29.6015H23.8618ZM21.008 32.4714V35.3412H23.8618V32.4714H21.008ZM18.1382 35.3412V38.195H21.008V35.3412H18.1382ZM15.1716 38.195V40.2909H18.1382V38.195H15.1716ZM21.008 38.195V40.5005H23.8618V38.195H21.008ZM23.8618 35.3412V38.195H26.7155V35.3412H23.8618ZM26.7155 32.4714V35.3412H29.5854V32.4714H26.7155ZM29.5854 29.6015V32.4714H32.4391V29.6015H29.5854ZM32.4391 26.7477V29.6015H35.309V26.7477H32.4391ZM35.309 23.894V26.7477H38.1627V23.894H35.309ZM38.1627 21.0241V23.894H40.5005V21.0241H38.1627ZM35.309 29.6015V32.4714H37.2598L38.0176 29.6015H35.309ZM32.4391 32.4714V35.3412H34.5189L35.309 34.5995V32.4714H32.4391ZM29.5854 35.3412V38.0498L32.4391 37.2921V35.3412H29.5854ZM38.1627 13.1724L37.4855 12.4307H35.309V15.3005H38.1627V13.1724ZM20.9919 42C32.4874 42 42 32.4874 42 21.008C42 9.51247 32.4714 0 20.9758 0C9.49633 0 0 9.51247 0 21.008C0 32.4874 9.51247 42 20.9919 42ZM20.9919 39.0011C11.028 39.0011 3.01497 30.9719 3.01497 21.008C3.01497 11.028 11.0119 3.01497 20.9758 3.01497C30.9558 3.01497 38.9849 11.028 38.9849 21.008C38.9849 30.9719 30.9719 39.0011 20.9919 39.0011Z" fill="#219653"/>
</svg>
