<svg width="69" height="56" viewBox="0 0 69 56" fill="none" xmlns="http://www.w3.org/2000/svg">
<path d="M14.6433 17.0773C13.9974 18.4716 13.6272 20.1852 13.6272 22.2225C13.6272 22.568 13.476 22.7624 13.1305 22.7624C7.21314 22.7624 3.82252 27.168 3.82252 32.783C3.82252 38.7004 9.13517 43.6459 16.2835 43.6459L41.2507 43.66L45.0789 47.4847L16.3051 47.4684C6.99714 47.4684 0 40.8384 0 32.783C0 26.0666 3.9521 20.6459 10.1502 19.7821C10.1737 17.6772 10.7415 15.7612 11.7051 14.1417L14.6433 17.0773ZM60.2747 21.1859C65.7602 23.3455 69 28.3558 69 34.0788C69 40.2995 64.5544 45.4576 58.311 46.9976L54.9515 43.641C60.7646 43.3791 65.1775 39.273 65.1775 34.0788C65.1775 29.0253 61.9377 25.2244 56.8846 24.0366C56.5822 23.9718 56.4522 23.7558 56.4738 23.4319C56.5606 22.1793 56.6468 20.7755 56.5606 19.5878C56.042 11.0573 49.5849 3.82249 40.4712 3.82249C33.2149 3.82249 29.0253 7.90422 26.3041 12.7418C26.1314 13.0441 25.937 13.1089 25.6131 13.0009C25.0159 12.7914 24.4144 12.6346 23.8159 12.5341L19.9262 8.64793C21.3926 8.44442 22.915 8.56688 24.4037 9.04881C27.5999 4.10329 32.891 0 40.4712 0C51.6581 0 60.4262 8.91922 60.2747 21.1859Z" fill="#219653"/>
<path d="M56.5602 54.725C57.2944 55.4377 58.4604 55.4377 59.173 54.725C59.8857 54.0124 59.8857 52.8459 59.173 52.1116L12.4174 5.37752C11.7048 4.66483 10.4954 4.68644 9.7827 5.37752C9.09162 6.0686 9.11323 7.29955 9.7827 7.99062L56.5602 54.725Z" fill="#219653"/>
</svg>
