<svg width="67" height="62" viewBox="0 0 67 62" fill="none" xmlns="http://www.w3.org/2000/svg">
<path d="M0 20.3122C0 34.7487 12.331 48.8928 31.2773 61.1492C31.9388 61.5746 32.8649 62 33.5 62C34.1616 62 35.0877 61.5746 35.7492 61.1492C54.669 48.8928 67 34.7487 67 20.3122C67 8.45453 58.8764 0 48.0008 0C41.7824 0 36.4902 3.13722 33.5 7.94938C30.5363 3.16381 25.2441 0 18.9992 0C8.12363 0 0 8.45453 0 20.3122ZM4.68365 20.3122C4.68365 11.0068 10.7433 4.70583 18.9463 4.70583C25.3235 4.70583 29.1604 8.69384 31.4625 12.4425C32.2563 13.6655 32.7855 14.0377 33.5 14.0377C34.241 14.0377 34.6908 13.6389 35.564 12.4425C37.972 8.747 41.703 4.70583 48.0537 4.70583C56.2568 4.70583 62.3164 11.0068 62.3164 20.3122C62.3164 33.1535 48.927 46.819 34.1351 56.7093C33.844 56.8954 33.6323 57.0549 33.5 57.0549C33.3677 57.0549 33.156 56.8954 32.8649 56.7093C18.0731 46.819 4.68365 33.1535 4.68365 20.3122Z" fill="#219653"/>
</svg>
