<svg width="111" height="112" viewBox="0 0 111 112" fill="none" xmlns="http://www.w3.org/2000/svg">
<g clip-path="url(#clip0_207_37)">
<path d="M63.0625 111.398C66.65 111.398 69.1554 108.552 70.8773 104L104.342 16.5281C105.13 14.4828 105.553 12.6648 105.553 11.1453C105.553 7.86719 103.531 5.81329 100.253 5.81329C98.6945 5.81329 96.9086 6.26798 94.8703 7.05626L7.04999 40.6312C2.95 42.2109 0 44.7164 0 48.3359C0 52.6906 3.19453 54.3859 7.95155 55.8273L44.775 66.5914L55.493 103.123C56.9344 108.023 58.6437 111.398 63.0625 111.398ZM47.2765 58.6086L14.2272 48.6539C13.1459 48.3125 12.8866 48.0531 12.8866 47.6445C12.8866 47.2179 13.1389 46.8554 14.028 46.5531L79.5212 21.5772C83.3103 20.0944 86.9892 18.2952 90.8274 16.5515C87.6704 19.0913 83.611 22.3233 81.0079 24.9124L47.2765 58.6086ZM63.7859 98.5688C63.3453 98.5688 63.0929 98.2134 62.7586 97.1642L52.7577 64.1219L86.486 30.3584C89.0009 27.8295 92.3673 23.6608 94.879 20.4999C93.1352 24.3381 91.304 28.049 89.8212 31.8451L64.8453 97.3313C64.5109 98.2524 64.2125 98.5688 63.7859 98.5688Z" fill="#27AE60"/>
</g>
<defs>
<clipPath id="clip0_207_37">
<rect width="110.709" height="111.398" fill="white"/>
</clipPath>
</defs>
</svg>
